Coordinates
version=1
nRows=5
nColumns=42
inDegrees=yes

Units are S.I. units (second, meters, Newtons, ...)
If the header above contains a line with 'inDegrees', this indicates whether rotational values are in degrees (yes) or radians (no).

endheader
time	pelvis_tilt	pelvis_list	pelvis_rotation	pelvis_tx	pelvis_ty	pelvis_tz	hip_flexion_r	hip_adduction_r	hip_rotation_r	knee_angle_r	knee_adduction_r	knee_angle_r_beta	ankle_angle_r	subtalar_angle_r	mtp_angle_r	hip_flexion_l	hip_adduction_l	hip_rotation_l	knee_angle_l	knee_adduction_l	knee_angle_l_beta	ankle_angle_l	subtalar_angle_l	mtp_angle_l	lumbar_extension	lumbar_bending	lumbar_rotation	arm_flex_r	arm_add_r	arm_rot_r	elbow_flex_r	pro_sup_r	wrist_flex_r	wrist_dev_r	arm_flex_l	arm_add_l	arm_rot_l	elbow_flex_l	pro_sup_l	wrist_flex_l	wrist_dev_l
      0.97000000	     -5.42964723	      0.37719064	     -6.42634522	     -0.67261593	      0.91299850	     -0.09219498	     -7.30594447	     -1.92250364	      8.06882677	     29.93625899	      7.27831468	      0.52248629	     -8.17560606	    -18.36191664	     -7.65050288	     25.01546992	     -3.33958854	      2.61862918	     15.90326529	      8.74762146	      0.27756434	     -9.64845232	    -19.22743046	     -7.65050288	     -4.34267577	     -4.56302611	      9.44779690	     -2.83841982	    -14.38802613	     -0.34530631	     32.53312018	     90.00000001	      0.00000000	      0.00000000	    -13.79870288	     -7.53185856	    -20.35945508	     19.52926901	     90.00000001	      0.00000000	      0.00000000
      0.98000000	     -5.45584631	      0.07157210	     -5.88955313	     -0.66054821	      0.91572742	     -0.09329774	     -5.64556059	     -1.46225265	      7.18776433	     33.26166888	      7.06689195	      0.58052564	     -8.67193553	    -18.57597226	     -7.64656671	     24.02911255	     -3.28075836	      2.99578022	     15.52690603	      8.68758412	      0.27099563	     -9.10433011	    -19.19712704	     -7.64656671	     -4.37162307	     -4.23468137	      8.79565429	     -3.27680221	    -14.01713616	     -0.10257860	     31.62679140	     90.00000001	      0.00000000	      0.00000000	    -13.42656769	     -7.61258774	    -19.74774113	     20.16975444	     90.00000001	      0.00000000	      0.00000000
      0.99000000	     -5.35502229	     -0.25837583	     -5.48330474	     -0.64851664	      0.91866493	     -0.09428318	     -4.06484022	     -1.00852334	      6.31354697	     36.43048561	      6.70469919	      0.63583192	     -8.81767476	    -18.79128486	     -7.64375057	     22.78049977	     -3.31644615	      3.33501881	     14.94005378	      8.66014405	      0.26075313	     -8.47747173	    -19.13562011	     -7.64375057	     -4.51917462	     -3.86819037	      8.25880906	     -3.72231832	    -13.69114236	      0.15743271	     30.77778441	     90.00000001	      0.00000000	      0.00000000	    -12.97459566	     -7.66763275	    -19.27703396	     20.76988931	     90.00000001	      0.00000000	      0.00000000
      1.00000000	     -5.01637028	     -0.75995113	     -4.93680697	     -0.63675366	      0.92194610	     -0.09566558	     -2.85481212	     -0.50765646	      5.85801667	     39.11478665	      6.79492463	      0.68268181	     -8.56650728	    -19.01586425	     -7.64223534	     21.44413160	     -3.44656523	      3.59562843	     14.67136393	      8.55042907	      0.25606361	     -8.07033209	    -19.06543831	     -7.64223534	     -5.02094542	     -3.26213288	      7.53571626	     -4.12666084	    -13.46713808	      0.27885144	     30.20461157	     90.00000001	      0.00000000	      0.00000000	    -12.35917574	     -7.59526414	    -18.95110282	     21.27913235	     90.00000001	      0.00000000	      0.00000000
      1.01000000	     -5.29815339	     -0.92744993	     -4.23324726	     -0.62494032	      0.92409043	     -0.09671386	     -0.59636912	     -0.21311573	      3.54815638	     42.31786759	      5.69599744	      0.73858612	     -8.11972673	    -18.99354843	     -7.63270999	     20.62774864	     -3.30524059	      4.49550635	     13.92958078	      8.56464840	      0.24311705	     -7.70557927	    -19.08719483	     -7.63270999	     -4.66345079	     -3.04426291	      6.70403353	     -4.61980561	    -13.00113625	      0.49845394	     29.25085373	     90.00000001	      0.00000000	      0.00000000	    -12.39155913	     -8.02044729	    -16.75391135	     22.66228250	     90.00000001	      0.00000000	      0.00000000
